<svg xmlns="http://www.w3.org/2000/svg" viewBox="0 0 512 512" width="512" height="512"><style>.a{fill:#FFF;}</style><path d="M255.2 468.6H63.8c-11.7 0-21.3-9.5-21.3-21.3V64.6c0-11.7 9.5-21.3 21.3-21.3H255.2c11.8 0 21.3-9.5 21.3-21.3S266.9 0.9 255.2 0.9H63.8C28.6 0.9 0 29.5 0 64.6v382.7c0 35.2 28.6 63.8 63.8 63.8H255.2c11.8 0 21.3-9.5 21.3-21.3C276.4 478.1 266.9 468.6 255.2 468.6z" class="a"/><path d="M505.7 240.9L376.4 113.3c-8.3-8.2-21.8-8.1-30.1 0.2s-8.2 21.8 0.2 30.1l92.4 91.2H191.4c-11.8 0-21.3 9.5-21.3 21.3 0 11.8 9.5 21.3 21.3 21.3h247.6l-92.4 91.2c-8.4 8.3-8.4 21.7-0.2 30.1 4.2 4.2 9.7 6.3 15.1 6.3 5.4 0 10.8-2 14.9-6.1l129.3-127.6c4-4 6.3-9.4 6.3-15.1C512 250.3 509.7 244.9 505.7 240.9z" class="a"/></svg>
